<?xml version="1.0" encoding="utf-8"?>
<svg version="1.1" xmlns:xlink="http://www.w3.org/1999/xlink" width="2075px" height="10px" preserveAspectRatio="xMinYMid meet" viewBox="358 68  2075 8" xmlns="http://www.w3.org/2000/svg">
  <path d="M 363 157  L 363 77  A 5 5 0 0 1 368 72 L 2423 72  A 5 5 0 0 1 2428 77 L 2437.25721864729 100.143046618229  " stroke-width="2" stroke="#ff3399" fill="none" />
  <path d="M 363 152  A 3.5 3.5 0 0 0 359.5 155.5 A 3.5 3.5 0 0 0 363 159 A 3.5 3.5 0 0 0 366.5 155.5 A 3.5 3.5 0 0 0 363 152 Z M 2439.34633809574 93.8068764979847  L 2436.95482732167 99.3870683041634  L 2431.37463551549 96.9955575300868  L 2430.58679691833 98.8338475901229  L 2437.08613375453 101.619277662779  L 2438.00527878454 102.013196961358  L 2438.39919808312 101.09405193134  L 2441.18462815578 94.594715095143  L 2439.34633809574 93.8068764979847  Z " fill-rule="nonzero" fill="#ff3399" stroke="none" />
</svg>