<?xml version="1.0" encoding="utf-8"?>
<svg version="1.1" xmlns:xlink="http://www.w3.org/1999/xlink" width="12px" height="12px" viewBox="492 1305.5  12 12" xmlns="http://www.w3.org/2000/svg">
  <path d="M 498 1305.5  C 501.36 1305.5  504 1308.14  504 1311.5  C 504 1314.86  501.36 1317.5  498 1317.5  C 494.64 1317.5  492 1314.86  492 1311.5  C 492 1308.14  494.64 1305.5  498 1305.5  Z " fill-rule="nonzero" fill="#ffffff" stroke="none" />
  <path d="M 498 1306  C 501.08 1306  503.5 1308.42  503.5 1311.5  C 503.5 1314.58  501.08 1317  498 1317  C 494.92 1317  492.5 1314.58  492.5 1311.5  C 492.5 1308.42  494.92 1306  498 1306  Z " stroke-width="1" stroke="#797979" fill="none" />
  <path d="M 498 1314.5  C 496.32 1314.5  495 1313.18  495 1311.5  C 495 1309.82  496.32 1308.5  498 1308.5  C 499.68 1308.5  501 1309.82  501 1311.5  C 501 1313.18  499.68 1314.5  498 1314.5  " fill-rule="nonzero" fill="#797979" stroke="none" />
</svg>