<?xml version="1.0" encoding="utf-8"?>
<svg version="1.1" xmlns:xlink="http://www.w3.org/1999/xlink" width="10px" height="198px" preserveAspectRatio="xMidYMin meet" viewBox="666 995  8 198" xmlns="http://www.w3.org/2000/svg">
  <path d="M 543 1188  L 665 1188  A 5 5 0 0 0 670 1183 L 670 1005  A 5 5 0 0 1 675 1000 L 683 1000  A 5 5 0 0 1 688 1005 L 688 1018  " stroke-width="2" stroke="#ff3399" fill="none" />
  <path d="M 547 1191  L 547 1185  L 541 1185  L 541 1191  L 547 1191  Z M 692.292893218813 1012.89289321881  L 688 1017.18578643763  L 683.707106781187 1012.89289321881  L 682.292893218813 1014.30710678119  L 687.292893218813 1019.30710678119  L 688 1020.01421356237  L 688.707106781187 1019.30710678119  L 693.707106781187 1014.30710678119  L 692.292893218813 1012.89289321881  Z " fill-rule="nonzero" fill="#ff3399" stroke="none" />
</svg>