<?xml version="1.0" encoding="utf-8"?>
<svg version="1.1" xmlns:xlink="http://www.w3.org/1999/xlink" width="12px" height="12px" viewBox="425 1380.5  12 12" xmlns="http://www.w3.org/2000/svg">
  <path d="M 431 1380.5  C 434.36 1380.5  437 1383.14  437 1386.5  C 437 1389.86  434.36 1392.5  431 1392.5  C 427.64 1392.5  425 1389.86  425 1386.5  C 425 1383.14  427.64 1380.5  431 1380.5  Z " fill-rule="nonzero" fill="#ffffff" stroke="none" />
  <path d="M 431 1381  C 434.08 1381  436.5 1383.42  436.5 1386.5  C 436.5 1389.58  434.08 1392  431 1392  C 427.92 1392  425.5 1389.58  425.5 1386.5  C 425.5 1383.42  427.92 1381  431 1381  Z " stroke-width="1" stroke="#797979" fill="none" />
  <path d="M 431 1389.5  C 429.32 1389.5  428 1388.18  428 1386.5  C 428 1384.82  429.32 1383.5  431 1383.5  C 432.68 1383.5  434 1384.82  434 1386.5  C 434 1388.18  432.68 1389.5  431 1389.5  " fill-rule="nonzero" fill="#797979" stroke="none" />
</svg>