<?xml version="1.0" encoding="utf-8"?>
<svg version="1.1" xmlns:xlink="http://www.w3.org/1999/xlink" width="12px" height="12px" viewBox="525 1171.5  12 12" xmlns="http://www.w3.org/2000/svg">
  <path d="M 531 1171.5  C 534.36 1171.5  537 1174.14  537 1177.5  C 537 1180.86  534.36 1183.5  531 1183.5  C 527.64 1183.5  525 1180.86  525 1177.5  C 525 1174.14  527.64 1171.5  531 1171.5  Z " fill-rule="nonzero" fill="#ffffff" stroke="none" />
  <path d="M 531 1172  C 534.08 1172  536.5 1174.42  536.5 1177.5  C 536.5 1180.58  534.08 1183  531 1183  C 527.92 1183  525.5 1180.58  525.5 1177.5  C 525.5 1174.42  527.92 1172  531 1172  Z " stroke-width="1" stroke="#797979" fill="none" />
  <path d="M 531 1180.5  C 529.32 1180.5  528 1179.18  528 1177.5  C 528 1175.82  529.32 1174.5  531 1174.5  C 532.68 1174.5  534 1175.82  534 1177.5  C 534 1179.18  532.68 1180.5  531 1180.5  " fill-rule="nonzero" fill="#797979" stroke="none" />
</svg>