<?xml version="1.0" encoding="utf-8"?>
<svg version="1.1" xmlns:xlink="http://www.w3.org/1999/xlink" width="12px" height="12px" viewBox="546 1380.5  12 12" xmlns="http://www.w3.org/2000/svg">
  <path d="M 552 1380.5  C 555.36 1380.5  558 1383.14  558 1386.5  C 558 1389.86  555.36 1392.5  552 1392.5  C 548.64 1392.5  546 1389.86  546 1386.5  C 546 1383.14  548.64 1380.5  552 1380.5  Z " fill-rule="nonzero" fill="#ffffff" stroke="none" />
  <path d="M 552 1381  C 555.08 1381  557.5 1383.42  557.5 1386.5  C 557.5 1389.58  555.08 1392  552 1392  C 548.92 1392  546.5 1389.58  546.5 1386.5  C 546.5 1383.42  548.92 1381  552 1381  Z " stroke-width="1" stroke="#797979" fill="none" />
  <path d="M 552 1389.5  C 550.32 1389.5  549 1388.18  549 1386.5  C 549 1384.82  550.32 1383.5  552 1383.5  C 553.68 1383.5  555 1384.82  555 1386.5  C 555 1388.18  553.68 1389.5  552 1389.5  " fill-rule="nonzero" fill="#797979" stroke="none" />
</svg>