<?xml version="1.0" encoding="utf-8"?>
<svg version="1.1" xmlns:xlink="http://www.w3.org/1999/xlink" width="12px" height="12px" viewBox="425 1171.5  12 12" xmlns="http://www.w3.org/2000/svg">
  <path d="M 431 1171.5  C 434.36 1171.5  437 1174.14  437 1177.5  C 437 1180.86  434.36 1183.5  431 1183.5  C 427.64 1183.5  425 1180.86  425 1177.5  C 425 1174.14  427.64 1171.5  431 1171.5  Z " fill-rule="nonzero" fill="#ffffff" stroke="none" />
  <path d="M 431 1172  C 434.08 1172  436.5 1174.42  436.5 1177.5  C 436.5 1180.58  434.08 1183  431 1183  C 427.92 1183  425.5 1180.58  425.5 1177.5  C 425.5 1174.42  427.92 1172  431 1172  Z " stroke-width="1" stroke="#797979" fill="none" />
  <path d="M 431 1180.5  C 429.32 1180.5  428 1179.18  428 1177.5  C 428 1175.82  429.32 1174.5  431 1174.5  C 432.68 1174.5  434 1175.82  434 1177.5  C 434 1179.18  432.68 1180.5  431 1180.5  " fill-rule="nonzero" fill="#797979" stroke="none" />
</svg>